<svg width="48" height="48" viewBox="0 0 48 48" fill="none" xmlns="http://www.w3.org/2000/svg">
<rect width="48" height="48" fill="white"/>
<circle cx="24" cy="24" r="24" fill="#EA9F30"/>
<path d="M9 20.625C9 18.5566 10.6816 16.875 12.75 16.875C12.7793 16.875 12.8145 16.875 12.8437 16.875C13.2773 14.7363 15.1699 13.125 17.4375 13.125C18.3164 13.125 19.1367 13.3652 19.834 13.7812C20.6133 12.2812 22.1895 11.25 24 11.25C25.8105 11.25 27.3867 12.2812 28.166 13.7812C28.8633 13.3652 29.6836 13.125 30.5625 13.125C32.8301 13.125 34.7227 14.7363 35.1562 16.875C35.1855 16.875 35.2207 16.875 35.25 16.875C37.3184 16.875 39 18.5566 39 20.625C39 21.3105 38.8184 21.9492 38.4961 22.5H9.50391C9.18164 21.9492 9 21.3105 9 20.625ZM9 25.9805C9 25.0957 9.7207 24.375 10.6055 24.375H37.3945C38.2793 24.375 39 25.0957 39 25.9805C39 30.1113 36.3984 33.6387 32.748 35.0098L32.6426 35.8594C32.5254 36.7969 31.7285 37.5 30.7793 37.5H17.2148C16.2715 37.5 15.4687 36.7969 15.3516 35.8594L15.2461 35.0156C11.6016 33.6387 9 30.1113 9 25.9805Z" fill="white"/>
</svg>
