<svg width="48" height="48" viewBox="0 0 48 48" fill="none" xmlns="http://www.w3.org/2000/svg">
<path d="M48 24C48 37.2548 37.2548 48 24 48C10.7452 48 0 37.2548 0 24C0 10.7452 10.7452 0 24 0C37.2548 0 48 10.7452 48 24Z" fill="#EA9F30"/>
<path d="M37.0597 8.44058C36.4722 7.85314 35.5223 7.85314 34.9411 8.44058L31.9352 11.4403C31.7852 11.5903 31.6664 11.7715 31.5914 11.9715L30.629 14.5337L25.7858 19.3833C22.9673 17.5459 19.5801 17.496 17.599 19.4833C16.9116 20.1707 16.4742 21.0206 16.2617 21.958C16.0304 22.9954 15.068 23.8766 14.0056 23.9328C12.4058 24.0141 10.9247 24.6015 9.79981 25.7202C7.00008 28.5261 7.52503 33.5881 10.9684 37.0316C14.4119 40.475 19.4739 40.9999 22.2736 38.2002C23.3922 37.0816 23.9859 35.5942 24.0609 33.9944C24.1172 32.932 24.9983 31.9758 26.0357 31.7383C26.9731 31.5258 27.8231 31.0821 28.5105 30.401C30.4978 28.4136 30.4478 25.0327 28.6105 22.2142L33.46 17.3647L36.0223 16.4023C36.2222 16.3273 36.4035 16.2086 36.5535 16.0586L39.5532 13.0589C40.1406 12.4714 40.1406 11.5215 39.5532 10.9403L37.0597 8.44058ZM20.9987 24.0016C21.7943 24.0016 22.5573 24.3176 23.1198 24.8802C23.6824 25.4427 23.9984 26.2057 23.9984 27.0013C23.9984 27.7969 23.6824 28.5598 23.1198 29.1224C22.5573 29.685 21.7943 30.001 20.9987 30.001C20.2031 30.001 19.4402 29.685 18.8776 29.1224C18.315 28.5598 17.999 27.7969 17.999 27.0013C17.999 26.2057 18.315 25.4427 18.8776 24.8802C19.4402 24.3176 20.2031 24.0016 20.9987 24.0016Z" fill="white"/>
</svg>
