<svg width="48" height="48" viewBox="0 0 48 48" fill="none" xmlns="http://www.w3.org/2000/svg">
<circle cx="24" cy="24" r="24" fill="#EA9F30"/>
<path d="M20.4608 9.00662C19.123 8.91272 18.0022 9.82827 17.6736 11.0431L16.9812 13.6489C17.0106 13.6489 17.0458 13.6489 17.0751 13.6489C27.4434 13.6489 35.8519 22.0591 35.8519 32.4295C35.8519 32.4588 35.8519 32.494 35.8519 32.5234L38.4572 31.8308C39.6777 31.5081 40.5872 30.3812 40.4933 29.0431C39.754 18.3147 31.1871 9.74611 20.4608 9.00662ZM33.9625 33.0281C33.9684 32.8286 33.9743 32.629 33.9743 32.4295C33.9743 23.092 26.4107 15.527 17.0751 15.527C16.8756 15.527 16.6761 15.5329 16.4766 15.5387L10.5325 37.823C10.4445 38.1458 10.5384 38.4921 10.7731 38.7268C11.0078 38.9616 11.354 39.0555 11.6768 38.9674L33.9625 33.0281ZM20.8305 21.1612C21.3285 21.1612 21.8061 21.359 22.1582 21.7112C22.5103 22.0634 22.7082 22.5411 22.7082 23.0392C22.7082 23.5373 22.5103 24.015 22.1582 24.3672C21.8061 24.7194 21.3285 24.9173 20.8305 24.9173C20.3325 24.9173 19.8549 24.7194 19.5027 24.3672C19.1506 24.015 18.9528 23.5373 18.9528 23.0392C18.9528 22.5411 19.1506 22.0634 19.5027 21.7112C19.8549 21.359 20.3325 21.1612 20.8305 21.1612ZM24.5858 28.6734C24.5858 28.1753 24.7837 27.6976 25.1358 27.3454C25.4879 26.9932 25.9655 26.7953 26.4635 26.7953C26.9615 26.7953 27.4391 26.9932 27.7912 27.3454C28.1434 27.6976 28.3412 28.1753 28.3412 28.6734C28.3412 29.1715 28.1434 29.6491 27.7912 30.0013C27.4391 30.3536 26.9615 30.5514 26.4635 30.5514C25.9655 30.5514 25.4879 30.3536 25.1358 30.0013C24.7837 29.6491 24.5858 29.1715 24.5858 28.6734ZM16.1363 31.4904C16.1363 30.9924 16.3341 30.5147 16.6862 30.1625C17.0384 29.8103 17.516 29.6124 18.0139 29.6124C18.5119 29.6124 18.9895 29.8103 19.3417 30.1625C19.6938 30.5147 19.8916 30.9924 19.8916 31.4904C19.8916 31.9885 19.6938 32.4662 19.3417 32.8184C18.9895 33.1706 18.5119 33.3685 18.0139 33.3685C17.516 33.3685 17.0384 33.1706 16.6862 32.8184C16.3341 32.4662 16.1363 31.9885 16.1363 31.4904Z" fill="white"/>
</svg>
