<svg width="72" height="72" viewBox="0 0 72 72" fill="none" xmlns="http://www.w3.org/2000/svg">
<g filter="url(#filter0_d_1404_1613)">
<circle cx="36" cy="36" r="32" fill="url(#paint0_linear_1404_1613)"/>
</g>
<path d="M48.6688 28.8656L45.9828 24.6141C45.7438 24.2344 45.3172 24 44.8625 24H28.1375C27.6828 24 27.2563 24.2344 27.0172 24.6141L24.3266 28.8656C22.9391 31.0594 24.1672 34.1109 26.7594 34.4625C26.9469 34.4859 27.1391 34.5 27.3266 34.5C28.55 34.5 29.6375 33.9656 30.3828 33.1406C31.1281 33.9656 32.2156 34.5 33.4391 34.5C34.6625 34.5 35.75 33.9656 36.4953 33.1406C37.2406 33.9656 38.3281 34.5 39.5516 34.5C40.7797 34.5 41.8625 33.9656 42.6078 33.1406C43.3578 33.9656 44.4406 34.5 45.6641 34.5C45.8563 34.5 46.0438 34.4859 46.2313 34.4625C48.8328 34.1156 50.0656 31.0641 48.6735 28.8656H48.6688ZM46.4235 35.9484H46.4188C46.1703 35.9812 45.9172 36 45.6594 36C45.0781 36 44.5203 35.9109 44 35.7516V42H29V35.7469C28.475 35.9109 27.9125 36 27.3313 36C27.0735 36 26.8156 35.9812 26.5672 35.9484H26.5625C26.3703 35.9203 26.1828 35.8875 26 35.8406V42V45C26 46.6547 27.3453 48 29 48H44C45.6547 48 47 46.6547 47 45V42V35.8406C46.8125 35.8875 46.625 35.925 46.4235 35.9484Z" fill="black"/>
<defs>
<filter id="filter0_d_1404_1613" x="0" y="0" width="72" height="72" filterUnits="userSpaceOnUse" color-interpolation-filters="sRGB">
<feFlood flood-opacity="0" result="BackgroundImageFix"/>
<feColorMatrix in="SourceAlpha" type="matrix" values="0 0 0 0 0 0 0 0 0 0 0 0 0 0 0 0 0 0 127 0" result="hardAlpha"/>
<feOffset/>
<feGaussianBlur stdDeviation="2"/>
<feComposite in2="hardAlpha" operator="out"/>
<feColorMatrix type="matrix" values="0 0 0 0 0.886275 0 0 0 0 0.552941 0 0 0 0 0.0588235 0 0 0 1 0"/>
<feBlend mode="normal" in2="BackgroundImageFix" result="effect1_dropShadow_1404_1613"/>
<feBlend mode="normal" in="SourceGraphic" in2="effect1_dropShadow_1404_1613" result="shape"/>
</filter>
<linearGradient id="paint0_linear_1404_1613" x1="4" y1="-15.5" x2="64.5" y2="87.5" gradientUnits="userSpaceOnUse">
<stop stop-color="#EFBE5F"/>
<stop offset="0.482292" stop-color="#E38D0F"/>
<stop offset="1" stop-color="#B4700B"/>
</linearGradient>
</defs>
</svg>
