<svg width="26" height="26" viewBox="0 0 26 26" fill="none" xmlns="http://www.w3.org/2000/svg">
<path d="M20.501 10.7486C20.501 12.8998 19.8025 14.887 18.6259 16.4993L24.5605 22.4375C25.1465 23.0233 25.1465 23.9748 24.5605 24.5606C23.9746 25.1465 23.0229 25.1465 22.437 24.5606L16.5023 18.6224C14.8897 19.8035 12.9021 20.4971 10.7505 20.4971C5.36428 20.4971 1 16.1337 1 10.7486C1 5.36342 5.36428 1 10.7505 1C16.1367 1 20.501 5.36342 20.501 10.7486ZM10.7505 17.4976C11.6369 17.4976 12.5147 17.323 13.3337 16.9838C14.1527 16.6447 14.8969 16.1475 15.5237 15.5208C16.1505 14.8941 16.6477 14.1501 16.987 13.3313C17.3262 12.5125 17.5008 11.6349 17.5008 10.7486C17.5008 9.86228 17.3262 8.98466 16.987 8.16584C16.6477 7.34701 16.1505 6.603 15.5237 5.9763C14.8969 5.3496 14.1527 4.85247 13.3337 4.5133C12.5147 4.17413 11.6369 3.99956 10.7505 3.99956C9.86401 3.99956 8.98622 4.17413 8.16724 4.5133C7.34825 4.85247 6.6041 5.3496 5.97727 5.9763C5.35045 6.603 4.85322 7.34701 4.51398 8.16584C4.17475 8.98466 4.00015 9.86228 4.00015 10.7486C4.00015 11.6349 4.17475 12.5125 4.51398 13.3313C4.85322 14.1501 5.35045 14.8941 5.97727 15.5208C6.6041 16.1475 7.34825 16.6447 8.16724 16.9838C8.98622 17.323 9.86401 17.4976 10.7505 17.4976Z" stroke="white"/>
</svg>
