<svg width="200" height="40" viewBox="0 0 200 40" fill="none" xmlns="http://www.w3.org/2000/svg">
<g clip-path="url(#clip0_260_479)">
<path d="M21.999 20.7548H19.9843C18.2773 20.7548 16.7383 20.5834 15.4231 20.2691C14.108 19.9549 13.0446 19.5835 12.2332 19.0979C11.4217 18.6122 10.7781 18.0123 10.2744 17.3552C9.74273 16.6696 9.40695 16.0125 9.21107 15.3554C9.01519 14.6984 8.93125 14.0127 8.93125 13.2985V12.8129C8.93125 12.0987 9.01519 11.4416 9.21107 10.7845C9.40695 10.1275 9.74273 9.49898 10.2464 8.84191C10.7501 8.15628 11.3937 7.61348 12.2052 7.12783C13.0167 6.64217 14.08 6.27078 15.3952 5.9851C16.7103 5.67085 18.2494 5.52801 19.9563 5.52801H21.999C29.3304 5.52801 32.996 7.9563 32.996 12.8129V13.2985C32.996 18.2694 29.3304 20.7548 21.999 20.7548ZM20.9916 16.8695C22.9784 16.8695 24.4055 16.4982 25.2449 15.7554C26.1124 15.0412 26.5321 14.1556 26.5321 13.1557V13.0129C26.5321 11.9844 26.1124 11.0988 25.2449 10.4132C24.4055 9.69895 22.9784 9.35614 21.0196 9.35614H20.9916C18.9769 9.35614 17.5498 9.69896 16.7103 10.3846C15.8709 11.0702 15.4511 11.9558 15.4511 13.0129V13.1557C15.4511 14.1556 15.8709 15.0412 16.7383 15.7554C17.5778 16.4982 19.0049 16.8695 20.9916 16.8695Z" fill="#EA9F30"/>
<path d="M35.3424 6.12794H41.6385V8.5848C43.6252 6.72787 46.1716 5.81369 49.2776 5.81369H49.5015C51.9919 5.81369 53.8667 6.35649 55.098 7.44208C56.3572 8.55623 56.9728 9.87036 56.9728 11.4416V20.5263H50.5368V13.4128C50.5368 12.2701 50.2011 11.3845 49.5295 10.756C48.8299 10.1275 47.7946 9.81322 46.4234 9.81322C44.9963 9.81322 43.8491 10.1846 42.9816 10.8988C42.1421 11.613 41.6944 12.5558 41.6944 13.7271V20.5263H35.3424V6.12794Z" fill="#EA9F30"/>
<path d="M77.4552 0H83.8631V20.4406H77.5111V18.2408C77.3712 18.4408 77.1194 18.6408 76.8116 18.8979C76.4758 19.1264 76.0281 19.4121 75.4405 19.6978C74.8248 20.012 74.0693 20.2691 73.09 20.4691C72.1106 20.6691 71.0472 20.7834 69.9 20.7834H69.5362C66.2902 20.7834 63.8558 20.0977 62.2608 18.6979C60.6378 17.3266 59.8543 15.5268 59.8543 13.3557V12.8414C59.8543 10.7274 60.6098 9.01332 62.1209 7.67062C63.6599 6.32792 66.0384 5.67085 69.2843 5.67085H69.7321C73.034 5.67085 75.6084 6.44219 77.4552 7.9563V0ZM77.4552 13.1557C77.4552 12.1558 76.9235 11.2702 75.8882 10.556C74.8248 9.81323 73.4257 9.44184 71.6349 9.44184H71.495C69.6201 9.44184 68.305 9.78466 67.5215 10.4989C66.7659 11.1845 66.3742 12.0701 66.3742 13.1557V13.2414C66.3742 14.2413 66.7939 15.1269 67.6614 15.8697C68.5008 16.6124 69.816 16.9838 71.5509 16.9838H71.6908C73.4817 16.9838 74.8808 16.6124 75.9162 15.8697C76.9515 15.1269 77.4552 14.2413 77.4552 13.2414V13.1557Z" fill="#EA9F30"/>
<path d="M109.745 15.3554C109.745 15.8125 109.689 16.241 109.549 16.6696C109.409 17.1267 109.129 17.5837 108.682 18.098C108.206 18.6408 107.618 19.0693 106.891 19.4692C106.163 19.8406 105.156 20.1834 103.813 20.4406C102.498 20.6977 100.959 20.8119 99.1957 20.8119H97.5727C95.586 20.8119 93.8791 20.612 92.424 20.212C90.9689 19.8121 89.8496 19.2407 89.0381 18.5265C88.2546 17.8123 87.667 17.041 87.2752 16.2125C86.9115 15.384 86.7436 14.4413 86.7436 13.4414V12.87C86.7436 11.8701 86.9115 10.9845 87.2472 10.156C87.583 9.32757 88.1427 8.5848 88.9262 7.8706C89.6817 7.15639 90.801 6.6136 92.2281 6.21365C93.6832 5.81369 95.3901 5.61372 97.4048 5.61372H99.1398C106.275 5.61372 109.829 8.18485 109.829 13.3842V14.3555H92.9836C93.4034 16.241 95.2222 17.1838 98.4402 17.1838H98.4682C99.2517 17.1838 99.9792 17.1267 100.595 17.0124C101.21 16.8981 101.686 16.7838 102.022 16.6124C102.386 16.4696 102.666 16.2982 102.889 16.1268C103.085 15.9268 103.253 15.784 103.309 15.6697C103.393 15.5554 103.449 15.4411 103.449 15.3269H109.745V15.3554ZM98.2443 8.95618H98.2163C95.3342 8.95618 93.6272 9.75609 93.0956 11.3845H103.393C102.945 9.75609 101.238 8.95618 98.2443 8.95618Z" fill="#EA9F30"/>
<path d="M130.584 20.5263C128.038 20.5263 126.779 19.1836 126.779 16.441V10.0989H123.784V6.12794H126.779V1.92844H133.075V6.12794H136.097V10.0989H133.075V15.3269C133.075 15.7554 133.159 16.0696 133.326 16.2696C133.494 16.4696 133.83 16.5839 134.362 16.5839H136.097V20.5263H130.584Z" fill="#EA9F30"/>
<path d="M161.979 15.3554C161.979 15.8125 161.923 16.241 161.784 16.6696C161.644 17.1267 161.364 17.5837 160.916 18.098C160.44 18.6408 159.853 19.0693 159.125 19.4692C158.398 19.8406 157.39 20.1834 156.047 20.4406C154.732 20.6977 153.193 20.8119 151.43 20.8119H149.807C147.82 20.8119 146.113 20.612 144.658 20.212C143.203 19.8121 142.084 19.2407 141.273 18.5265C140.489 17.8123 139.901 17.041 139.51 16.2125C139.146 15.384 138.978 14.4413 138.978 13.4414V12.87C138.978 11.8701 139.146 10.9845 139.482 10.156C139.817 9.32757 140.377 8.5848 141.161 7.8706C141.916 7.15639 143.035 6.6136 144.462 6.21365C145.918 5.81369 147.624 5.61372 149.639 5.61372H151.374C158.51 5.61372 162.063 8.18485 162.063 13.3842V14.3555H145.218C145.638 16.241 147.457 17.1838 150.675 17.1838H150.703C151.486 17.1838 152.214 17.1267 152.829 17.0124C153.445 16.8981 153.921 16.7838 154.256 16.6124C154.62 16.4696 154.9 16.2982 155.124 16.1268C155.32 15.9268 155.488 15.784 155.544 15.6697C155.627 15.5554 155.683 15.4411 155.683 15.3269H161.979V15.3554ZM150.479 8.95618H150.451C147.569 8.95618 145.862 9.75609 145.33 11.3845H155.627C155.18 9.75609 153.473 8.95618 150.479 8.95618Z" fill="#EA9F30"/>
<path d="M164.938 20.5263V6.12794H171.234V8.61337C173.249 6.72787 175.683 5.81369 178.566 5.81369H178.761C181.756 5.81369 183.798 6.75644 184.918 8.6705C186.96 6.75644 189.535 5.81369 192.669 5.81369H192.892C195.271 5.81369 197.034 6.35649 198.209 7.47064C199.412 8.5848 200 9.89893 200 11.4416V20.5263H193.564V13.4128C193.564 11.0131 192.389 9.81322 190.066 9.81322C188.723 9.81322 187.632 10.1846 186.848 10.9274C186.065 11.6416 185.673 12.5843 185.673 13.7271V20.5263H179.237V13.4128C179.237 11.0131 178.062 9.81322 175.711 9.81322C174.34 9.81322 173.277 10.1846 172.493 10.9274C171.71 11.6416 171.29 12.5843 171.29 13.7271V20.5263H164.938Z" fill="#EA9F30"/>
<path d="M6.35199 5.21365V40.0144H0V5.21365H6.35199Z" fill="#131313"/>
<path d="M41.1294 36.2148H41.9129V40.2429H37.016C35.6728 40.2429 34.9173 39.5573 34.6934 38.2146C34.2457 38.7574 33.4902 39.3002 32.3989 39.7858C31.3076 40.2715 19.7649 40.5 17.89 40.5H17.5543C15.2597 40.5 13.5528 40.0429 12.4335 39.1288C11.3142 38.2146 10.7825 37.0719 10.7825 35.672V35.472C10.7825 34.1293 11.2302 33.1009 12.1816 32.3867C13.133 31.7011 14.7001 31.244 16.8827 31.044L33.6301 30.4155C34.2177 30.3298 34.5255 30.0727 34.5255 29.6442C34.5255 29.387 34.4696 29.2156 34.3576 29.0442C34.2457 28.9014 33.8819 28.7585 33.2943 28.6443C32.7067 28.5014 31.8392 28.4157 30.7479 28.4157L10.7825 28.4443V25.0161H31.3635C32.9865 25.0161 34.3856 25.1018 35.5329 25.3018C36.7082 25.5018 37.5756 25.7589 38.1912 26.0446C38.8068 26.3588 39.2825 26.7302 39.6183 27.1873C39.9821 27.673 40.178 28.0729 40.2619 28.4443C40.3179 28.8157 40.3738 29.2728 40.3738 29.787V35.472C40.3738 35.9577 40.6257 36.2148 41.1294 36.2148ZM34.5255 33.6437V33.1866L18.7015 34.1008C17.89 34.2151 17.3304 34.3865 16.9946 34.5864C16.6868 34.7864 16.5189 35.0721 16.5189 35.472V35.5006C16.5189 35.9577 16.7148 36.3577 17.1345 36.7005C17.5543 37.0147 18.2258 37.1861 19.1772 37.1861C20.7163 37.1861 32.0631 36.8148 33.0425 36.1005C34.0498 35.3863 34.5255 34.5864 34.5255 33.6437Z" fill="#131313"/>
<path d="M46.0302 25.5304H52.3262V27.9872C54.313 26.1303 62.0089 25.2161 65.1149 25.2161H65.3388C67.8292 25.2161 69.704 25.7589 70.9352 26.8445C72.1944 27.9586 72.8101 29.2728 72.8101 30.844V39.9287H66.3741V32.8152C66.3741 31.6725 66.0383 30.7869 65.3667 30.1584C64.6672 29.5299 63.1308 29.2156 57.1112 29.2156C55.6841 29.2156 54.5368 29.587 53.6694 30.3012C52.8299 31.0154 52.3822 31.9582 52.3822 33.1295V39.9287H46.0302V25.5304Z" fill="#131313"/>
<path d="M88.6288 40.1858C86.9499 40.1858 84.9404 40.0144 83.6252 39.7001C82.3101 39.3859 81.2747 38.9859 80.5192 38.5003C79.7637 38.0146 79.1201 37.4432 78.6164 36.7576C78.1407 36.072 77.8049 35.4149 77.637 34.7579C77.4691 34.1294 77.3852 33.4437 77.3852 32.7581V32.2153C77.3852 31.5297 77.4691 30.8726 77.637 30.2155C77.8049 29.587 78.1407 28.9585 78.6164 28.2729C79.0921 27.6158 79.7357 27.073 80.4912 26.5874C81.2747 26.1017 82.3101 25.7303 83.5972 25.4161C84.9124 25.1304 86.9499 24.959 88.6288 24.959H99.42C101.239 24.959 102.862 25.1304 104.233 25.4447C105.604 25.7589 106.667 26.1588 107.395 26.6159C108.123 27.073 108.71 27.6158 109.186 28.2158C109.634 28.8443 109.913 29.387 110.053 29.8441C110.165 30.3298 110.221 30.7869 110.221 31.2725V31.3297H103.673C103.254 29.6156 102.386 28.73 99.42 28.73H88.6288C86.9219 28.73 85.8358 29.0728 85.0523 29.7584C84.2688 30.4155 83.905 31.2725 83.905 32.301V32.501C83.905 33.5866 84.2968 34.5007 85.0523 35.2435C85.8358 35.9863 86.9499 36.3577 88.6288 36.3577C88.6288 36.3577 96.4819 36.3577 99.42 36.3577C102.358 36.3577 103.226 35.472 103.673 33.7008H110.221V33.758C110.221 34.2436 110.165 34.7293 110.053 35.2149C109.941 35.672 109.662 36.2434 109.242 36.8719C108.794 37.5004 108.206 38.0432 107.479 38.5003C106.751 38.9574 105.688 39.3573 104.289 39.6716C102.89 40.0144 101.295 40.1858 99.42 40.1858H88.6288Z" fill="#131313"/>
<path d="M113.095 40.0144V5.12794H119.447V28.0158C121.406 26.1874 128.924 25.2732 132.03 25.2732H132.226C134.717 25.2732 136.592 25.816 137.851 26.9302C139.11 28.0158 139.726 29.3585 139.726 30.9012V40.0144H133.29V32.8724C133.29 31.7296 132.954 30.844 132.282 30.2155C131.583 29.6156 130.547 29.3013 129.176 29.3013C127.749 29.3013 121.602 29.6442 120.734 30.3584C119.895 31.0726 119.447 32.0153 119.447 33.2152V40.0144H113.095Z" fill="#131313"/>
<path d="M175.412 34.7579C175.412 35.2149 175.356 35.6435 175.216 36.072C175.076 36.5291 174.797 36.9862 174.349 37.5004C173.873 38.0432 173.286 38.4717 172.558 38.8717C171.83 39.243 170.823 39.5859 169.48 39.843C168.165 40.1001 166.626 40.2144 164.863 40.2144H153.436C151.45 40.2144 149.743 40.0144 148.288 39.6144C146.833 39.2145 145.713 38.6431 144.902 37.9289C144.118 37.2147 143.531 36.4434 143.139 35.6149C142.775 34.7864 142.607 33.8437 142.607 32.8438V32.2724C142.607 31.2725 142.775 30.3869 143.111 29.5585C143.447 28.73 144.006 27.9872 144.79 27.273C145.545 26.5588 146.665 26.016 148.092 25.6161C149.547 25.2161 151.254 25.0161 153.268 25.0161H164.807C171.942 25.0161 175.496 27.5873 175.496 32.7866V33.758H148.847C149.267 35.6435 151.086 36.5862 154.304 36.5862H154.332C155.115 36.5862 165.646 36.5291 166.262 36.4148C166.878 36.3005 167.353 36.1863 167.689 36.0148C168.053 35.872 168.333 35.7006 168.557 35.5292C168.752 35.3292 168.92 35.1864 168.976 35.0721C169.06 34.9578 169.116 34.8435 169.116 34.7293H175.412V34.7579ZM154.108 28.3586H154.08C151.198 28.3586 149.491 29.1585 148.959 30.7869H169.06C169.06 28 157.102 28.3586 154.108 28.3586Z" fill="#131313"/>
<path d="M186.317 34.3865V32.7009C186.317 31.8439 186.568 31.1868 187.072 30.7297C187.576 30.2441 188.611 29.8441 190.178 29.4728L192.193 28.9871C193.116 28.7871 193.704 28.5586 194.012 28.33C194.292 28.1015 194.432 27.8444 194.432 27.5587C194.432 27.3301 194.376 27.1302 194.264 26.9873C194.152 26.8445 193.788 26.7016 193.144 26.5874C192.529 26.4445 191.381 26.3874 187.353 26.3874C186.542 26.3874 186.038 26.4445 185.45 26.5588C184.863 26.6731 184.415 26.7873 184.135 26.9302C183.855 27.0445 183.632 27.2444 183.492 27.5016C183.324 27.7301 183.24 27.9015 183.212 28.0158C183.212 28.1015 183.184 28.2729 183.156 28.5014H177.671V28.2158C177.671 27.8444 177.671 27.5301 177.699 27.273C177.727 26.9873 177.783 26.6731 177.923 26.2731C178.063 25.8446 178.231 25.5018 178.455 25.2161C178.707 24.9304 179.042 24.6447 179.49 24.3305C179.966 24.0162 180.498 23.7591 181.141 23.5306C181.757 23.3306 182.568 23.1878 183.576 23.0449C184.555 22.9307 185.674 22.845 186.906 22.845H191.074C192.529 22.845 193.816 22.9592 194.907 23.1306C196.027 23.3306 196.866 23.5592 197.51 23.8448C198.153 24.1591 198.657 24.5019 199.049 24.9304C199.44 25.3589 199.692 25.7875 199.804 26.1874C199.944 26.5874 200 27.0445 200 27.5301V27.673C200 28.7871 199.636 29.7299 198.909 30.4726C198.209 31.2154 197.006 31.7868 195.383 32.1581L193.396 32.6724C192.669 32.8152 192.249 33.0152 192.053 33.2152C191.885 33.4437 191.801 33.7865 191.801 34.2436V34.3865H186.317ZM192.025 35.872V40H186.233V35.872H192.025Z" fill="#EA9F30"/>
</g>
<defs>
<clipPath id="clip0_260_479">
<rect width="200" height="40" fill="white"/>
</clipPath>
</defs>
</svg>
