<svg width="23" height="32" viewBox="0 0 23 32" fill="none" xmlns="http://www.w3.org/2000/svg">
<path d="M12.8409 31.281C15.8948 27.258 22.86 17.5078 22.86 12.0311C22.86 5.38895 17.7403 0 11.43 0C5.11969 0 0 5.38895 0 12.0311C0 17.5078 6.96516 27.258 10.0191 31.281C10.7513 32.2397 12.1087 32.2397 12.8409 31.281ZM11.43 8.02076C12.4405 8.02076 13.4096 8.44328 14.1241 9.19537C14.8386 9.94746 15.24 10.9675 15.24 12.0311C15.24 13.0948 14.8386 14.1148 14.1241 14.8669C13.4096 15.619 12.4405 16.0415 11.43 16.0415C10.4195 16.0415 9.45044 15.619 8.73592 14.8669C8.02141 14.1148 7.62 13.0948 7.62 12.0311C7.62 10.9675 8.02141 9.94746 8.73592 9.19537C9.45044 8.44328 10.4195 8.02076 11.43 8.02076Z" fill="url(#paint0_linear_633_2150)"/>
<path d="M11.43 8.02076C12.4405 8.02076 13.4096 8.44328 14.1241 9.19537C14.8386 9.94746 15.24 10.9675 15.24 12.0311C15.24 13.0948 14.8386 14.1148 14.1241 14.8669C13.4096 15.619 12.4405 16.0415 11.43 16.0415C10.4195 16.0415 9.45044 15.619 8.73592 14.8669C8.02141 14.1148 7.62 13.0948 7.62 12.0311C7.62 10.9675 8.02141 9.94746 8.73592 9.19537C9.45044 8.44328 10.4195 8.02076 11.43 8.02076Z" fill="url(#paint1_linear_633_2150)"/>
<path d="M17.9619 7.70312C17.9612 7.70312 17.9604 7.70272 17.96 7.70205L16.5203 5.34115C16.3921 5.13021 16.1634 5 15.9196 5H6.95071C6.70689 5 6.47814 5.13021 6.34994 5.34115L4.90708 7.70312C4.16303 8.92188 4.82162 10.6172 6.21169 10.8125C6.31224 10.8255 6.4153 10.8333 6.51584 10.8333C7.49985 10.8333 8.80969 10.8333 9.7937 10.8333C10.7777 10.8333 12.0875 10.8333 13.0716 10.8333C14.0565 10.8333 15.3645 10.8333 16.3494 10.8333C16.4525 10.8333 16.553 10.8255 16.6536 10.8125C18.0483 10.6198 18.7094 8.92548 17.9639 7.7042C17.9634 7.70354 17.9627 7.70312 17.9619 7.70312ZM16.7566 11.638H16.7541C16.6209 11.6562 16.4851 11.6667 16.3469 11.6667C15.8993 11.6667 15.457 11.9851 15.457 12.4327V13.5331C15.457 14.3433 14.8003 15 13.9902 15H8.87605C8.06816 15 7.41323 14.3451 7.41323 13.5372V12.4356C7.41323 11.9864 6.96751 11.6667 6.51836 11.6667C6.38011 11.6667 6.24185 11.6562 6.10863 11.638C6.10695 11.638 6.10528 11.6379 6.10363 11.6376C6.0989 11.6369 6.09417 11.6362 6.08945 11.6355C5.94432 11.613 5.80447 11.7221 5.80447 11.869V15V16.6667C5.80447 17.5859 6.5259 18.3333 7.41323 18.3333H15.457C16.3444 18.3333 17.0658 17.5859 17.0658 16.6667V15V11.8933C17.0658 11.7337 16.915 11.6189 16.7566 11.638Z" fill="#131313"/>
<defs>
<linearGradient id="paint0_linear_633_2150" x1="3.175" y1="-2.10548e-07" x2="20.2469" y2="28.6194" gradientUnits="userSpaceOnUse">
<stop stop-color="#E8A02D"/>
<stop offset="0.46875" stop-color="#E28D0F"/>
<stop offset="1" stop-color="#CD800D"/>
</linearGradient>
<linearGradient id="paint1_linear_633_2150" x1="3.175" y1="-2.10548e-07" x2="20.2469" y2="28.6194" gradientUnits="userSpaceOnUse">
<stop stop-color="#E8A02D"/>
<stop offset="0.46875" stop-color="#E28D0F"/>
<stop offset="1" stop-color="#CD800D"/>
</linearGradient>
</defs>
</svg>
