<svg width="1458" height="1458" viewBox="0 0 1458 1458" fill="none" xmlns="http://www.w3.org/2000/svg">
<rect width="1458" height="1458" fill="white"/>
<path d="M300.35 898.65H260.75C227.2 898.65 196.95 895.35 171.1 889.3C145.25 883.25 124.35 876.1 108.4 866.75C92.45 857.4 79.8 845.85 69.9 833.2C59.45 820 52.85 807.35 49 794.7C45.15 782.05 43.5 768.85 43.5 755.1V745.75C43.5 732 45.15 719.35 49 706.7C52.85 694.05 59.45 681.95 69.35 669.3C79.25 656.1 91.9 645.65 107.85 636.3C123.8 626.95 144.7 619.8 170.55 614.3C196.4 608.25 226.65 605.5 260.2 605.5H300.35C444.45 605.5 516.5 652.25 516.5 745.75V755.1C516.5 850.8 444.45 898.65 300.35 898.65ZM280.55 823.85C319.6 823.85 347.65 816.7 364.15 802.4C381.2 788.65 389.45 771.6 389.45 752.35V749.6C389.45 729.8 381.2 712.75 364.15 699.55C347.65 685.8 319.6 679.2 281.1 679.2H280.55C240.95 679.2 212.9 685.8 196.4 699C179.9 712.2 171.65 729.25 171.65 749.6V752.35C171.65 771.6 179.9 788.65 196.95 802.4C213.45 816.7 241.5 823.85 280.55 823.85ZM696.268 894.25C646.218 894.25 621.468 868.4 621.468 815.6V693.5H562.618V617.05H621.468V536.2H745.218V617.05H804.618V693.5H745.218V794.15C745.218 802.4 746.868 808.45 750.168 812.3C753.468 816.15 760.068 818.35 770.518 818.35H804.618V894.25H696.268ZM986.101 512V895.9H861.251V512H986.101Z" fill="#131313"/>
<path d="M1143.44 787.55V755.1C1143.44 738.6 1148.39 725.95 1158.29 717.15C1168.19 707.8 1188.54 700.1 1219.34 692.95L1258.94 683.6C1277.09 679.75 1288.64 675.35 1294.69 670.95C1300.19 666.55 1302.94 661.6 1302.94 656.1C1302.94 651.7 1301.84 647.85 1299.64 645.1C1297.44 642.35 1290.29 639.6 1277.64 637.4C1265.54 634.65 1247.39 633.55 1223.74 633.55C1207.79 633.55 1193.49 634.65 1181.94 636.85C1170.39 639.05 1161.59 641.25 1156.09 644C1150.59 646.2 1146.19 650.05 1143.44 655C1140.14 659.4 1138.49 662.7 1137.94 664.9C1137.94 666.55 1137.39 669.85 1136.84 674.25H1029.04V668.75C1029.04 661.6 1029.04 655.55 1029.59 650.6C1030.14 645.1 1031.24 639.05 1033.99 631.35C1036.74 623.1 1040.04 616.5 1044.44 611C1049.39 605.5 1055.99 600 1064.79 593.95C1074.14 587.9 1084.59 582.95 1097.24 578.55C1109.34 574.7 1125.29 571.95 1145.09 569.2C1164.34 567 1186.34 565.35 1210.54 565.35H1236.94C1265.54 565.35 1290.84 567.55 1312.29 570.85C1334.29 574.7 1350.79 579.1 1363.44 584.6C1376.09 590.65 1385.99 597.25 1393.69 605.5C1401.39 613.75 1406.34 622 1408.54 629.7C1411.29 637.4 1412.39 646.2 1412.39 655.55V658.3C1412.39 679.75 1405.24 697.9 1390.94 712.2C1377.19 726.5 1353.54 737.5 1321.64 744.65L1282.59 754.55C1268.29 757.3 1260.04 761.15 1256.19 765C1252.89 769.4 1251.24 776 1251.24 784.8V787.55H1143.44ZM1255.64 816.15V892.05H1141.79V816.15H1255.64Z" fill="#E89900"/>
</svg>
