<svg width="34" height="32" viewBox="0 0 34 32" fill="none" xmlns="http://www.w3.org/2000/svg">
<path d="M9.06667 6.85714C9.06667 6.55404 8.94726 6.26335 8.73472 6.04902C8.52218 5.83469 8.23391 5.71429 7.93333 5.71429C7.63275 5.71429 7.34449 5.83469 7.13195 6.04902C6.9194 6.26335 6.8 6.55404 6.8 6.85714C6.8 7.16025 6.9194 7.45094 7.13195 7.66527C7.34449 7.87959 7.63275 8 7.93333 8C8.23391 8 8.52218 7.87959 8.73472 7.66527C8.94726 7.45094 9.06667 7.16025 9.06667 6.85714Z" fill="white"/>
<path d="M18.1333 4.57143C18.1333 4.26832 18.0139 3.97763 17.8014 3.76331C17.5888 3.54898 17.3006 3.42857 17 3.42857C16.6994 3.42857 16.4112 3.54898 16.1986 3.76331C15.9861 3.97763 15.8667 4.26832 15.8667 4.57143C15.8667 4.87453 15.9861 5.16522 16.1986 5.37955C16.4112 5.59388 16.6994 5.71429 17 5.71429C17.3006 5.71429 17.5888 5.59388 17.8014 5.37955C18.0139 5.16522 18.1333 4.87453 18.1333 4.57143Z" fill="white"/>
<path d="M26.0667 8C26.3672 8 26.6555 7.87959 26.8681 7.66527C27.0806 7.45094 27.2 7.16025 27.2 6.85714C27.2 6.55404 27.0806 6.26335 26.8681 6.04902C26.6555 5.83469 26.3672 5.71429 26.0667 5.71429C25.7661 5.71429 25.4778 5.83469 25.2653 6.04902C25.0527 6.26335 24.9333 6.55404 24.9333 6.85714C24.9333 7.16025 25.0527 7.45094 25.2653 7.66527C25.4778 7.87959 25.7661 8 26.0667 8Z" fill="white"/>
<path d="M1.13333 26.2857C1.13333 25.6571 1.64333 25.1429 2.26667 25.1429H31.7333C32.3567 25.1429 32.8667 25.6571 32.8667 26.2857V27.4286C32.8667 29.95 30.8337 32 28.3333 32H5.66667C3.16625 32 1.13333 29.95 1.13333 27.4286V26.2857Z" fill="white"/>
<path d="M0 19.4286C0 17.5357 1.52292 16 3.4 16H30.6C32.4771 16 34 17.5357 34 19.4286C34 21.3214 32.4771 22.8571 30.6 22.8571H3.4C1.52292 22.8571 0 21.3214 0 19.4286Z" fill="white"/>
<path fill-rule="evenodd" clip-rule="evenodd" d="M3.19458 13.7143C2.05417 13.7143 1.13333 12.7857 1.13333 11.6357C1.13333 11.5 1.1475 11.3714 1.17583 11.2357C1.55125 9.73571 4.44833 0 17 0C29.5517 0 32.4487 9.73571 32.8242 11.2357C32.8596 11.3714 32.8667 11.5 32.8667 11.6357C32.8667 12.7857 31.9458 13.7143 30.8054 13.7143H3.19458ZM8.73472 6.04902C8.94726 6.26335 9.06667 6.55404 9.06667 6.85714C9.06667 7.16025 8.94726 7.45094 8.73472 7.66527C8.52218 7.87959 8.23391 8 7.93333 8C7.63275 8 7.34449 7.87959 7.13195 7.66527C6.9194 7.45094 6.8 7.16025 6.8 6.85714C6.8 6.55404 6.9194 6.26335 7.13195 6.04902C7.34449 5.83469 7.63275 5.71429 7.93333 5.71429C8.23391 5.71429 8.52218 5.83469 8.73472 6.04902ZM26.8681 7.66527C26.6555 7.87959 26.3672 8 26.0667 8C25.7661 8 25.4778 7.87959 25.2653 7.66527C25.0527 7.45094 24.9333 7.16025 24.9333 6.85714C24.9333 6.55404 25.0527 6.26335 25.2653 6.04902C25.4778 5.83469 25.7661 5.71429 26.0667 5.71429C26.3672 5.71429 26.6555 5.83469 26.8681 6.04902C27.0806 6.26335 27.2 6.55404 27.2 6.85714C27.2 7.16025 27.0806 7.45094 26.8681 7.66527ZM17.8014 3.76331C18.0139 3.97763 18.1333 4.26832 18.1333 4.57143C18.1333 4.87453 18.0139 5.16522 17.8014 5.37955C17.5888 5.59388 17.3006 5.71429 17 5.71429C16.6994 5.71429 16.4112 5.59388 16.1986 5.37955C15.9861 5.16522 15.8667 4.87453 15.8667 4.57143C15.8667 4.26832 15.9861 3.97763 16.1986 3.76331C16.4112 3.54898 16.6994 3.42857 17 3.42857C17.3006 3.42857 17.5888 3.54898 17.8014 3.76331Z" fill="white"/>
</svg>
