<svg width="103" height="44" viewBox="0 0 103 44" fill="none" xmlns="http://www.w3.org/2000/svg">
<g filter="url(#filter0_d_1692_2688)">
<path d="M17.4 29C23.9 33.2 36.7 36 51.4 36C66.1 36 78.9 33.2 85.4 29C76.7 32 64.7 33.8 51.4 33.8C38.1 33.9 26.1 32 17.4 29Z" fill="#707070"/>
<path d="M98.8 16.2C98.8 7.2 77.6 0 51.4 0C25.2 0 4 7.2 4 16.2C4 16.5 4 16.7 4.1 17C4.1 17.2 4.2 17.4 4.2 17.5C4.2 17.6 4.2 17.7 4.3 17.8C4.3 18 4.4 18.1 4.4 18.3C4.4 18.4 4.5 18.5 4.5 18.6C4.6 18.8 4.7 18.9 4.7 19.1C4.8 19.2 4.8 19.3 4.9 19.4C5 19.5 5.1 19.7 5.2 19.8C5.3 19.9 5.4 20 5.4 20.1C5.5 20.2 5.6 20.4 5.7 20.5C5.8 20.6 5.9 20.7 6 20.8C6.1 20.9 6.3 21.1 6.4 21.2C6.5 21.3 6.6 21.4 6.7 21.5C6.8 21.6 7 21.8 7.1 21.9C7.2 22 7.4 22.1 7.5 22.2C7.7 22.3 7.8 22.5 8 22.6C8.2 22.9 8.4 23 8.5 23.1C8.7 23.2 8.9 23.3 9 23.5C9.2 23.6 9.3 23.7 9.5 23.8C9.7 23.9 9.9 24 10.1 24.2C10.3 24.3 10.4 24.4 10.6 24.5C10.8 24.6 11 24.7 11.2 24.8C11.4 24.9 11.6 25 11.8 25.1C12 25.2 12.2 25.3 12.5 25.4C12.7 25.5 12.9 25.6 13.1 25.7C13.3 25.8 13.6 25.9 13.8 26C14 26.1 14.2 26.2 14.5 26.3C14.7 26.4 15 26.5 15.2 26.6C15.4 26.7 15.7 26.8 15.9 26.9C16.2 27 16.4 27.1 16.7 27.2C17 27.3 17.2 27.4 17.5 27.5C17.8 27.6 18 27.7 18.3 27.8C18.6 27.9 18.8 28 19.1 28.1C19.4 28.2 19.7 28.3 19.9 28.4C20.2 28.5 20.5 28.6 20.7 28.6C21 28.7 21.3 28.8 21.6 28.8C21.9 28.9 22.2 29 22.5 29C22.8 29.1 23.1 29.2 23.4 29.2C23.7 29.3 24 29.4 24.3 29.4C24.6 29.5 24.9 29.5 25.2 29.6C25.5 29.7 25.8 29.7 26.2 29.8C26.5 29.9 26.8 29.9 27.1 30C27.4 30.1 27.8 30.1 28.1 30.2C28.4 30.3 28.7 30.3 29.1 30.4C29.4 30.5 29.8 30.5 30.1 30.6C30.4 30.7 30.7 30.7 31.1 30.8C31.5 30.9 31.8 30.9 32.2 31C32.5 31 32.9 31.1 33.2 31.1C33.6 31.2 33.9 31.2 34.3 31.3C34.6 31.3 35 31.4 35.3 31.4C35.7 31.4 36.1 31.5 36.5 31.5C36.8 31.5 37.2 31.6 37.5 31.6C37.9 31.6 38.3 31.7 38.7 31.7C39 31.7 39.4 31.8 39.7 31.8C40.1 31.8 40.5 31.9 40.9 31.9C41.2 31.9 41.6 32 41.9 32C42.3 32 42.8 32.1 43.2 32.1C43.5 32.1 43.9 32.1 44.2 32.2C44.7 32.2 45.1 32.2 45.6 32.3C45.9 32.3 46.2 32.3 46.5 32.3C47 32.3 47.6 32.3 48.1 32.3C48.4 32.3 48.6 32.3 48.9 32.3C49.7 32.3 50.5 32.3 51.3 32.3C52.1 32.3 52.9 32.3 53.7 32.3C54 32.3 54.2 32.3 54.5 32.3C55 32.3 55.6 32.3 56.1 32.3C56.4 32.3 56.7 32.3 57 32.3C57.5 32.3 57.9 32.3 58.4 32.2C58.7 32.2 59.1 32.2 59.4 32.1C59.8 32.1 60.3 32.1 60.7 32C61 32 61.4 31.9 61.7 31.9C62.1 31.9 62.5 31.8 63 31.8C63.3 31.8 63.7 31.7 64 31.7C64.4 31.7 64.8 31.6 65.2 31.6C65.5 31.6 65.9 31.5 66.2 31.5C66.6 31.5 67 31.4 67.4 31.4C67.7 31.4 68.1 31.3 68.4 31.3C68.8 31.3 69.2 31.2 69.5 31.1C69.8 31.1 70.2 31 70.5 31C70.9 30.9 71.2 30.9 71.6 30.8C71.9 30.7 72.3 30.7 72.6 30.6C72.9 30.5 73.3 30.5 73.6 30.4C73.9 30.3 74.2 30.3 74.6 30.2C74.9 30.1 75.3 30.1 75.6 30C75.9 29.9 76.2 29.9 76.5 29.8C76.8 29.7 77.2 29.7 77.5 29.6C77.8 29.5 78.1 29.5 78.4 29.4C78.7 29.3 79 29.3 79.3 29.2C79.6 29.1 79.9 29 80.2 29C80.5 28.9 80.8 28.8 81.1 28.8C81.4 28.7 81.7 28.6 82 28.6C82.3 28.5 82.6 28.4 82.8 28.3C83.1 28.2 83.4 28.1 83.6 28C83.9 27.9 84.1 27.8 84.4 27.7C84.7 27.6 84.9 27.5 85.2 27.4C85.5 27.3 85.7 27.2 86 27.1C86.3 27 86.5 26.9 86.8 26.8C87 26.7 87.3 26.6 87.5 26.5C87.7 26.4 88 26.3 88.2 26.2C88.4 26.1 88.6 26 88.9 25.9C89.1 25.8 89.4 25.7 89.6 25.6C89.8 25.5 90 25.4 90.2 25.3C90.4 25.2 90.6 25.1 90.9 25C91.1 24.9 91.3 24.8 91.5 24.7C91.7 24.6 91.9 24.5 92.1 24.4C92.3 24.3 92.5 24.2 92.6 24.1C92.8 24 93 23.9 93.2 23.7C93.4 23.6 93.5 23.5 93.7 23.4C93.9 23.3 94.1 23.2 94.2 23C94.4 22.9 94.5 22.8 94.6 22.7C94.8 22.6 94.9 22.4 95.1 22.3C95.2 22.2 95.4 22.1 95.5 22C95.6 21.9 95.8 21.7 95.9 21.6C96 21.5 96.1 21.4 96.2 21.3C96.3 21.2 96.5 21 96.6 20.9C96.7 20.8 96.8 20.7 96.9 20.6C97 20.5 97.1 20.3 97.2 20.2C97.3 20.1 97.4 20 97.4 19.9C97.5 19.8 97.6 19.6 97.7 19.5C97.8 19.4 97.8 19.3 97.9 19.2C98 19 98.1 18.9 98.1 18.7C98.1 18.6 98.2 18.5 98.2 18.4C98.3 18.2 98.3 18.1 98.4 17.9C98.4 17.8 98.4 17.7 98.5 17.6C98.5 17.4 98.6 17.2 98.6 17.1C98.8 16.7 98.8 16.4 98.8 16.2ZM31 21.3C30.5 21.6 30 21.9 29.1 21.3C29.1 21.3 29.1 21.3 28.7 20.7C28.3 20.1 28.7 20.1 29.2 19.7C29.7 19.4 29.2 19.7 29.6 19.2C30 18.7 30 19.1 30.6 19.3C31.2 19.5 31.3 19.6 31.6 20.2C31.8 20.8 31.5 21 31 21.3ZM40.5 18.2C40 18.5 39.5 18.8 38.6 18.2C38.6 18.2 38.6 18.2 38.2 17.6C37.8 17 38.2 17 38.7 16.6C39.2 16.3 38.7 16.6 39.1 16.1C39.5 15.6 39.5 16 40.1 16.2C40.7 16.4 40.8 16.5 41.1 17.1C41.3 17.7 41 17.9 40.5 18.2ZM43.1 24C42.9 24.3 42.6 24.4 42.1 24.3C41.6 24.2 41.3 24.1 41.5 22.7C41.5 22.7 41.5 22.7 41.9 22.3C42.3 21.9 42.2 22.3 42.9 22.2C43.6 22.1 43.2 23.1 43.2 23.1C43.2 23.1 43.3 23.7 43.1 24ZM46.2 16.8C45.5 16.4 45.8 15.8 45.8 15.8C45.7 15.4 44.5 15.7 44.4 14.7C44.3 13.7 45.5 13.5 46.2 13.3C46.9 13.1 47.2 13.2 48.6 14.3C48.9 14.7 48.7 14.9 48.8 15.2C48.9 15.5 49.3 15.8 48.4 16.3C47.5 16.8 46.9 17.2 46.2 16.8ZM49.2 28.6C48.7 28.9 48.2 29.2 47.3 28.6C47.3 28.6 47.3 28.6 46.9 28C46.5 27.4 46.9 27.4 47.4 27C47.9 26.6 47.4 27 47.8 26.5C48.2 26 48.2 26.4 48.8 26.6C49.4 26.8 49.5 26.9 49.8 27.5C50 28.1 49.7 28.4 49.2 28.6ZM52.5 23.5C52 23.8 51.5 24.1 50.6 23.5C50.6 23.5 50.6 23.5 50.2 22.9C49.8 22.3 50.2 22.3 50.7 21.9C51.2 21.5 50.7 21.9 51.1 21.4C51.5 20.9 51.5 21.3 52.1 21.5C52.7 21.7 52.8 21.8 53.1 22.4C53.4 23 53 23.3 52.5 23.5ZM53 18.2C52.8 18.5 52.5 18.6 52 18.5C51.5 18.4 51.2 18.3 51.4 16.9C51.4 16.9 51.4 16.9 51.8 16.5C52.2 16.1 52.1 16.5 52.8 16.4C53.5 16.3 53.1 17.3 53.1 17.3C53.1 17.3 53.1 17.9 53 18.2ZM57.5 22.7C57 23 56.5 23.3 55.6 22.7C55.6 22.7 55.6 22.7 55.2 22.1C54.8 21.5 55.2 21.5 55.7 21.1C56.2 20.8 55.7 21.1 56.1 20.6C56.5 20.1 56.5 20.5 57.1 20.7C57.7 20.9 57.8 21 58.1 21.6C58.4 22.2 58.1 22.5 57.5 22.7ZM60.4 26.7C60.3 27.3 60.1 26.9 59.7 27.3C59.3 27.7 58.9 26.7 58.9 26.7C58.9 26.7 58.4 26.4 58.4 26C58.4 25.6 58.6 25.4 59 25.2C59.4 25 59.8 24.9 60.4 26.2C60.4 26.2 60.4 26.2 60.4 26.7ZM58.6 15.8C57.4 16.4 57.5 15.5 57 15.4C56.5 15.2 56.7 15.1 56.7 14.7C56.6 14.3 56.8 13.9 57.4 13.9C57.4 13.9 57.9 13.7 58.2 13.8C58.5 13.9 58.7 14.4 58.7 14.4C58.7 14.4 59.2 14.4 60.2 14.9C61.2 15.5 59.9 15.2 58.6 15.8ZM66.7 26.4C66.3 27 65.9 27 64.1 26.8C63.6 26.6 63.7 26.4 63.5 26.2C63.3 26 62.8 26 63.2 25.1C63.6 24.2 64 23.5 64.8 23.5C65.6 23.4 65.7 24.1 65.7 24.1C66 24.3 66.8 23.5 67.5 24.2C68.2 24.9 67.1 25.8 66.7 26.4ZM63.4 19.6C63.3 19.2 63.5 18.8 64.1 18.8C64.1 18.8 64.6 18.6 64.9 18.7C65.2 18.8 65.4 19.3 65.4 19.3C65.4 19.3 65.9 19.3 66.9 19.8C67.9 20.3 66.6 20 65.3 20.6C64.1 21.2 64.2 20.3 63.7 20.2C63.2 20.1 63.5 20 63.4 19.6ZM73.2 18.1C72.8 18.7 72.4 18.7 70.6 18.5C70.1 18.3 70.2 18.1 70 17.9C69.8 17.7 69.3 17.7 69.7 16.8C70.1 15.9 70.5 15.2 71.3 15.2C72.1 15.1 72.2 15.8 72.2 15.8C72.5 16 73.3 15.2 74 15.9C74.7 16.6 73.7 17.5 73.2 18.1ZM87.8 20.4C82.6 14.9 68.3 10.9 51.4 10.9C34.5 10.9 20.2 14.9 15 20.4C14.7 20.1 14.5 19.8 14.2 19.5C18.5 13.9 33.5 9.7 51.4 9.7C69.2 9.7 84.2 13.9 88.6 19.5C88.3 19.8 88.1 20.1 87.8 20.4Z" fill="#707070"/>
</g>
<defs>
<filter id="filter0_d_1692_2688" x="0" y="0" width="102.8" height="44" filterUnits="userSpaceOnUse" color-interpolation-filters="sRGB">
<feFlood flood-opacity="0" result="BackgroundImageFix"/>
<feColorMatrix in="SourceAlpha" type="matrix" values="0 0 0 0 0 0 0 0 0 0 0 0 0 0 0 0 0 0 127 0" result="hardAlpha"/>
<feOffset dy="4"/>
<feGaussianBlur stdDeviation="2"/>
<feComposite in2="hardAlpha" operator="out"/>
<feColorMatrix type="matrix" values="0 0 0 0 0 0 0 0 0 0 0 0 0 0 0 0 0 0 0.25 0"/>
<feBlend mode="normal" in2="BackgroundImageFix" result="effect1_dropShadow_1692_2688"/>
<feBlend mode="normal" in="SourceGraphic" in2="effect1_dropShadow_1692_2688" result="shape"/>
</filter>
</defs>
</svg>
