<svg width="48" height="48" viewBox="0 0 48 48" fill="none" xmlns="http://www.w3.org/2000/svg">
<path d="M16.2921 12.8124C16.639 12.142 17.4312 11.8327 18.139 12.0905L23.9985 14.228L29.8579 12.0905C30.5657 11.8327 31.3579 12.142 31.7048 12.8124L35.3986 19.9796C36.7486 22.5953 35.8814 25.7125 33.5939 27.3204L35.0658 31.361L36.9877 30.6579C37.7658 30.3767 38.6283 30.7751 38.9096 31.5532C39.1909 32.3314 38.7924 33.1939 38.0143 33.4751L34.6814 34.6892L31.3486 35.908C30.5704 36.1939 29.7079 35.7908 29.4267 35.0127C29.1454 34.2345 29.5439 33.372 30.322 33.0908L32.2439 32.3876L30.7767 28.3469C27.9923 28.5907 25.3297 26.7532 24.6829 23.8844L23.9985 20.8515L23.3141 23.8844C22.6672 26.7579 20.0047 28.5907 17.2203 28.3469L15.753 32.3876L17.6749 33.0908C18.4531 33.372 18.8562 34.2345 18.5703 35.0127C18.2843 35.7908 17.4265 36.1939 16.6484 35.908L13.3202 34.6939L9.98734 33.4798C9.20921 33.1939 8.80608 32.3361 9.09202 31.5579C9.37796 30.7798 10.2358 30.3767 11.0139 30.6626L12.9358 31.3657L14.403 27.3251C12.1155 25.7125 11.253 22.5953 12.603 19.9796L16.2921 12.8124ZM18.3546 15.3624L15.5 20.5L21 22.5L22 16.6468L18.3546 15.3624ZM29.647 15.3624L26.1266 16.6468L27 22L32.2439 19.9796L29.647 15.3624Z" fill="#707070"/>
<circle cx="24" cy="24" r="23.5" stroke="#707070"/>
</svg>
