<svg width="48" height="48" viewBox="0 0 48 48" fill="none" xmlns="http://www.w3.org/2000/svg">
<circle cx="24" cy="24" r="23.5" stroke="#707070"/>
<path d="M12.5801 22.125C11.6367 22.125 10.875 21.3633 10.875 20.4199C10.875 20.3086 10.8867 20.2031 10.9102 20.0918C11.2207 18.8613 13.6172 10.875 24 10.875C34.3828 10.875 36.7793 18.8613 37.0898 20.0918C37.1191 20.2031 37.125 20.3086 37.125 20.4199C37.125 21.3633 36.3633 22.125 35.4199 22.125H12.5801ZM17.4375 16.5C17.4375 16.2514 17.3387 16.0129 17.1629 15.8371C16.9871 15.6613 16.7486 15.5625 16.5 15.5625C16.2514 15.5625 16.0129 15.6613 15.8371 15.8371C15.6613 16.0129 15.5625 16.2514 15.5625 16.5C15.5625 16.7486 15.6613 16.9871 15.8371 17.1629C16.0129 17.3387 16.2514 17.4375 16.5 17.4375C16.7486 17.4375 16.9871 17.3387 17.1629 17.1629C17.3387 16.9871 17.4375 16.7486 17.4375 16.5ZM31.5 17.4375C31.7486 17.4375 31.9871 17.3387 32.1629 17.1629C32.3387 16.9871 32.4375 16.7486 32.4375 16.5C32.4375 16.2514 32.3387 16.0129 32.1629 15.8371C31.9871 15.6613 31.7486 15.5625 31.5 15.5625C31.2514 15.5625 31.0129 15.6613 30.8371 15.8371C30.6613 16.0129 30.5625 16.2514 30.5625 16.5C30.5625 16.7486 30.6613 16.9871 30.8371 17.1629C31.0129 17.3387 31.2514 17.4375 31.5 17.4375ZM24.9375 14.625C24.9375 14.3764 24.8387 14.1379 24.6629 13.9621C24.4871 13.7863 24.2486 13.6875 24 13.6875C23.7514 13.6875 23.5129 13.7863 23.3371 13.9621C23.1613 14.1379 23.0625 14.3764 23.0625 14.625C23.0625 14.8736 23.1613 15.1121 23.3371 15.2879C23.5129 15.4637 23.7514 15.5625 24 15.5625C24.2486 15.5625 24.4871 15.4637 24.6629 15.2879C24.8387 15.1121 24.9375 14.8736 24.9375 14.625ZM9.9375 26.8125C9.9375 25.2598 11.1973 24 12.75 24H35.25C36.8027 24 38.0625 25.2598 38.0625 26.8125C38.0625 28.3652 36.8027 29.625 35.25 29.625H12.75C11.1973 29.625 9.9375 28.3652 9.9375 26.8125ZM10.875 32.4375C10.875 31.9219 11.2969 31.5 11.8125 31.5H36.1875C36.7031 31.5 37.125 31.9219 37.125 32.4375V33.375C37.125 35.4434 35.4434 37.125 33.375 37.125H14.625C12.5566 37.125 10.875 35.4434 10.875 33.375V32.4375Z" fill="#707070"/>
</svg>
