<svg width="48" height="48" viewBox="0 0 48 48" fill="none" xmlns="http://www.w3.org/2000/svg">
<circle cx="24" cy="24" r="23.5" stroke="#707070"/>
<path d="M37.6289 10.3711C39.457 12.1992 39.457 15.1699 37.6289 16.998L17.0039 37.623C15.1758 39.4512 12.2051 39.4512 10.377 37.623C8.54883 35.7949 8.54883 32.8242 10.377 30.9961L31.002 10.3711C32.8301 8.54297 35.8008 8.54297 37.6289 10.3711ZM34.9746 14.4316C34.6113 14.0684 34.0137 14.0684 33.6504 14.4316C32.918 15.1641 32.2559 15.3164 31.4531 15.4629L31.3066 15.4863C30.498 15.6328 29.4551 15.8145 28.4941 16.7754C27.5156 17.7539 27.2695 18.8848 27.082 19.7578L27.0703 19.8164C26.8711 20.7305 26.7188 21.3633 26.1504 21.9316C25.582 22.5 24.9492 22.6523 24.0352 22.8516L23.9766 22.8633C23.1035 23.0508 21.9727 23.2969 20.9941 24.2754C20.0156 25.2539 19.7695 26.3848 19.582 27.2578L19.5703 27.3164C19.3711 28.2305 19.2187 28.8633 18.6504 29.4316C18.1113 29.9707 17.5957 30.0645 16.7344 30.2168L16.6816 30.2285C15.7676 30.3926 14.6367 30.6328 13.4941 31.7754C13.1309 32.1387 13.1309 32.7363 13.4941 33.0996C13.8574 33.4629 14.4551 33.4629 14.8184 33.0996C15.5508 32.3672 16.2129 32.2148 17.0156 32.0684L17.1621 32.0449C17.9707 31.8984 19.0137 31.7168 19.9746 30.7559C20.9531 29.7773 21.1992 28.6465 21.3867 27.7734L21.3984 27.7148C21.5977 26.8008 21.75 26.168 22.3184 25.5996C22.8867 25.0312 23.5195 24.8789 24.4336 24.6797L24.4922 24.668C25.3652 24.4805 26.4961 24.2344 27.4746 23.2559C28.4531 22.2773 28.6992 21.1465 28.8867 20.2734L28.8984 20.2148C29.0977 19.3008 29.25 18.668 29.8184 18.0996C30.3574 17.5605 30.873 17.4668 31.7344 17.3145L31.7871 17.3027C32.7012 17.1387 33.832 16.8984 34.9746 15.7559C35.3379 15.3926 35.3379 14.7949 34.9746 14.4316ZM20.2031 37.0781L37.0781 20.2031L38.0039 21.1289C38.6426 21.7676 39 22.6289 39 23.5312C39 24.4336 38.6426 25.2949 38.0039 25.9336L25.9336 38.0039C25.2949 38.6426 24.4336 39 23.5312 39C22.6289 39 21.7676 38.6426 21.1289 38.0039L20.2031 37.0781ZM9.99609 26.8711C9.35742 26.2324 9 25.3711 9 24.4687C9 23.5664 9.35742 22.7051 9.99609 22.0664L22.0664 9.99609C22.7051 9.35742 23.5664 9 24.4687 9C25.3711 9 26.2324 9.35742 26.8711 9.99609L27.7969 10.9219L10.9219 27.7969L9.99609 26.8711Z" fill="#707070"/>
</svg>
