<svg width="48" height="48" viewBox="0 0 48 48" fill="none" xmlns="http://www.w3.org/2000/svg">
<circle cx="24" cy="24" r="23.5" transform="rotate(180 24 24)" stroke="#707070"/>
<path fill-rule="evenodd" clip-rule="evenodd" d="M8.06077 6.93921L18.6409 17.5193C17.82 18.5075 17.5125 19.1499 17.1895 20.3105L5.93945 9.06053L8.06077 6.93921ZM31.585 30.4635C30.6219 31.2428 30.0204 31.5718 28.791 31.9121L38.9395 42.0605L41.0608 39.9392L31.585 30.4635Z" fill="#707070"/>
<path d="M38.6021 12.3173C39.1345 11.7849 39.1345 10.924 38.6021 10.3972C38.0697 9.87044 37.2087 9.86477 36.682 10.3972L31.6919 15.3759C31.1595 15.9083 31.1595 16.7693 31.6919 17.296C32.2244 17.8228 33.0853 17.8284 33.6121 17.296L38.5964 12.3116L38.6021 12.3173ZM27.3023 11.5413C26.9511 11.1902 26.3734 11.1902 26.0222 11.5413L25.3765 12.1814C23.2525 14.3054 23.2525 17.7491 25.3765 19.8732L25.9656 20.4622L24.238 22.1898C24.0455 20.6435 23.3601 19.1425 22.1707 17.9531L21.5306 17.313C21.1794 16.9618 20.6017 16.9618 20.2505 17.313L19.6105 17.9531C17.4865 20.0771 17.4865 23.5208 19.6105 25.6448L20.1996 26.2339L18.472 27.9615C18.2794 26.4152 17.5941 24.9142 16.4046 23.7247L15.7646 23.079C15.4134 22.7279 14.8357 22.7279 14.4845 23.079L13.8445 23.7191C11.7205 25.8431 11.7205 29.2868 13.8445 31.4109L14.4335 31.9999L10.531 35.9025C9.823 36.6105 9.823 37.7603 10.531 38.4683C11.239 39.1763 12.3888 39.1763 13.0968 38.4683L16.9994 34.5657L17.6904 35.2568C19.8144 37.3808 23.2582 37.3808 25.3822 35.2568L26.0222 34.6167C26.3734 34.2656 26.3734 33.6878 26.0222 33.3366L25.3822 32.6966C24.1474 31.4618 22.5728 30.7652 20.9585 30.6066L22.7654 28.7997L23.4564 29.4907C25.5804 31.6148 29.0242 31.6148 31.1482 29.4907L31.7882 28.8507C32.1394 28.4995 32.1394 27.9218 31.7882 27.5706L31.1482 26.9306C29.9134 25.6958 28.3388 24.9991 26.7246 24.8406L28.5314 23.0337L29.2224 23.7247C31.3464 25.8488 34.7902 25.8488 36.9142 23.7247L37.5543 23.079C37.9054 22.7279 37.9054 22.1501 37.5543 21.799L36.9142 21.1532C36.6197 20.8587 36.3138 20.5982 35.9853 20.3659L38.6021 17.7548C39.1345 17.2224 39.1345 16.3615 38.6021 15.8347C38.0697 15.3079 37.2087 15.3023 36.682 15.8347L33.3175 19.1991C32.1507 18.9499 30.9386 18.9896 29.7888 19.3181C30.1343 18.1116 30.1626 16.8372 29.8681 15.6195L33.1646 12.3173C33.697 11.7849 33.697 10.924 33.1646 10.3972C32.6322 9.87044 31.7712 9.86477 31.2445 10.3972L28.639 12.9913C28.4294 12.7081 28.1972 12.4363 27.9367 12.1814L27.3023 11.5413Z" fill="#707070"/>
</svg>
