<svg width="48" height="48" viewBox="0 0 48 48" fill="none" xmlns="http://www.w3.org/2000/svg">
<path d="M24.4453 15.9675C20.4155 15.9675 17.0061 18.5536 15.8474 22.1188C17.5701 21.2652 19.5132 20.7881 21.5742 20.7881H26.0859C26.5371 20.7881 26.9062 21.1497 26.9062 21.5916C26.9062 22.0335 26.5371 22.395 26.0859 22.395H25.2656H21.5742C20.7231 22.395 19.8977 22.4904 19.103 22.6662C17.7751 22.9624 16.5396 23.4897 15.4424 24.2078C12.4636 26.1511 10.5 29.4703 10.5 33.2414V34.0448C10.5 34.7127 11.0486 35.25 11.7305 35.25C12.4124 35.25 12.9609 34.7127 12.9609 34.0448V33.2414C12.9609 30.7959 14.0222 28.5965 15.7192 27.0549C16.7344 30.8462 20.2566 33.6431 24.4453 33.6431H24.4966C31.2693 33.608 36.75 27.07 36.75 19.0105C36.75 16.8714 36.3655 14.8377 35.6682 13.0049C35.5349 12.6584 35.0171 12.6734 34.8376 12.9998C33.8738 14.7674 31.9666 15.9675 29.7773 15.9675H24.4453Z" fill="#707070"/>
<circle cx="24" cy="24" r="23.5" stroke="#707070"/>
</svg>
