<svg width="120" height="24" viewBox="0 0 120 24" fill="none" xmlns="http://www.w3.org/2000/svg">
<path d="M14.0124 11.8565H12.8158C11.8021 11.8565 10.888 11.7561 10.1069 11.5722C9.32586 11.3882 8.69434 11.1708 8.21239 10.8865C7.73044 10.6022 7.34821 10.2511 7.04907 9.86644C6.73331 9.46509 6.53388 9.08047 6.41755 8.69585C6.30122 8.31122 6.25136 7.90988 6.25136 7.49181V7.20752C6.25136 6.78945 6.30122 6.40483 6.41755 6.0202C6.53388 5.63558 6.73331 5.26768 7.03245 4.88305C7.33159 4.48171 7.71382 4.16397 8.19577 3.87969C8.67772 3.5954 9.30924 3.378 10.0903 3.21077C10.8714 3.02682 11.7855 2.94321 12.7992 2.94321H14.0124C18.3666 2.94321 20.5436 4.36465 20.5436 7.20752V7.49181C20.5436 10.4016 18.3666 11.8565 14.0124 11.8565ZM13.4141 9.58215C14.5941 9.58215 15.4416 9.36476 15.9402 8.92997C16.4554 8.5119 16.7047 7.99349 16.7047 7.40819V7.32458C16.7047 6.72256 16.4554 6.20415 15.9402 5.8028C15.4416 5.38474 14.5941 5.18406 13.4307 5.18406H13.4141C12.2176 5.18406 11.37 5.38474 10.8714 5.78608C10.3729 6.18743 10.1236 6.70584 10.1236 7.32458V7.40819C10.1236 7.99349 10.3729 8.5119 10.888 8.92997C11.3866 9.36476 12.2342 9.58215 13.4141 9.58215Z" fill="white"/>
<path d="M21.9372 3.29439H25.6764V4.73255C26.8564 3.64557 28.3687 3.11044 30.2134 3.11044H30.3463C31.8254 3.11044 32.9389 3.42817 33.6701 4.06364C34.418 4.71583 34.7836 5.48507 34.7836 6.40483V11.7227H30.9612V7.5587C30.9612 6.88979 30.7618 6.37138 30.363 6.00348C29.9475 5.63558 29.3326 5.45163 28.5183 5.45163C27.6707 5.45163 26.9893 5.66902 26.4741 6.08709C25.9756 6.50516 25.7097 7.05701 25.7097 7.74265V11.7227H21.9372V3.29439Z" fill="white"/>
<path d="M46.9483 0H50.754V11.6725H46.9815V10.3848C46.8984 10.5019 46.7488 10.619 46.566 10.7695C46.3666 10.9033 46.1007 11.0705 45.7517 11.2377C45.3861 11.4217 44.9374 11.5722 44.3557 11.6892C43.7741 11.8063 43.1425 11.8732 42.4612 11.8732H42.2451C40.3173 11.8732 38.8715 11.4718 37.9242 10.6524C36.9603 9.84972 36.495 8.79618 36.495 7.52525V7.22424C36.495 5.98676 36.9437 4.98339 37.8411 4.19742C38.7551 3.41145 40.1677 3.02682 42.0955 3.02682H42.3614C44.3225 3.02682 45.8514 3.47834 46.9483 4.36465V0ZM46.9483 7.40819C46.9483 6.82289 46.6325 6.30449 46.0176 5.88642C45.3861 5.45163 44.5551 5.23423 43.4915 5.23423H43.4084C42.295 5.23423 41.5139 5.4349 41.0485 5.85297C40.5998 6.25432 40.3672 6.77273 40.3672 7.40819V7.45836C40.3672 8.04366 40.6165 8.56207 41.1316 8.99686C41.6302 9.43165 42.4113 9.64904 43.4417 9.64904H43.5248C44.5884 9.64904 45.4193 9.43165 46.0342 8.99686C46.6491 8.56207 46.9483 8.04366 46.9483 7.45836V7.40819Z" fill="white"/>
<path d="M66.1255 8.69585C66.1255 8.96341 66.0922 9.21425 66.0091 9.46509C65.926 9.73266 65.7598 10.0002 65.4939 10.3012C65.2114 10.619 64.8624 10.8698 64.4303 11.1039C63.9982 11.3213 63.4 11.522 62.6023 11.6725C61.8212 11.823 60.9071 11.8899 59.8601 11.8899H58.8962C57.7163 11.8899 56.7025 11.7728 55.8383 11.5387C54.9742 11.3046 54.3094 10.9701 53.8275 10.5521C53.3621 10.134 53.0131 9.68249 52.7805 9.19753C52.5644 8.71257 52.4647 8.16072 52.4647 7.57542V7.24096C52.4647 6.65567 52.5644 6.13726 52.7638 5.6523C52.9633 5.16734 53.2957 4.73255 53.761 4.31448C54.2097 3.89641 54.8745 3.57868 55.722 3.34456C56.5862 3.11044 57.6 2.99338 58.7965 2.99338H59.8269C64.0647 2.99338 66.1753 4.49843 66.1753 7.54197V8.11055H56.1707C56.42 9.21425 57.5002 9.7661 59.4114 9.7661H59.428C59.8934 9.7661 60.3255 9.73266 60.6911 9.66577C61.0567 9.59888 61.3392 9.53199 61.5386 9.43165C61.7547 9.34804 61.9209 9.2477 62.0538 9.14736C62.1702 9.0303 62.2699 8.94669 62.3031 8.8798C62.353 8.81291 62.3862 8.74601 62.3862 8.67912H66.1255V8.69585ZM59.2951 4.94994H59.2785C57.5667 4.94994 56.553 5.41818 56.2372 6.37138H62.353C62.0871 5.41818 61.0733 4.94994 59.2951 4.94994Z" fill="white"/>
<path d="M78.3497 11.7227C76.8374 11.7227 76.0895 10.9367 76.0895 9.33131V5.61886H74.3113V3.29439H76.0895V0.836139H79.8288V3.29439H81.6236V5.61886H79.8288V8.67912C79.8288 8.92997 79.8786 9.11392 79.9783 9.23098C80.0781 9.34804 80.2775 9.41493 80.5932 9.41493H81.6236V11.7227H78.3497Z" fill="white"/>
<path d="M96.9956 8.69585C96.9956 8.96341 96.9624 9.21425 96.8793 9.46509C96.7962 9.73266 96.63 10.0002 96.3641 10.3012C96.0816 10.619 95.7326 10.8698 95.3005 11.1039C94.8684 11.3213 94.2701 11.522 93.4724 11.6725C92.6913 11.823 91.7772 11.8899 90.7303 11.8899H89.7664C88.5864 11.8899 87.5727 11.7728 86.7085 11.5387C85.8443 11.3046 85.1795 10.9701 84.6976 10.5521C84.2323 10.134 83.8833 9.68249 83.6506 9.19753C83.4345 8.71257 83.3348 8.16072 83.3348 7.57542V7.24096C83.3348 6.65567 83.4345 6.13726 83.634 5.6523C83.8334 5.16734 84.1658 4.73255 84.6311 4.31448C85.0798 3.89641 85.7446 3.57868 86.5921 3.34456C87.4563 3.11044 88.4701 2.99338 89.6666 2.99338H90.697C94.9348 2.99338 97.0454 4.49843 97.0454 7.54197V8.11055H87.0409C87.2901 9.21425 88.3704 9.7661 90.2815 9.7661H90.2982C90.7635 9.7661 91.1956 9.73266 91.5612 9.66577C91.9268 9.59888 92.2094 9.53199 92.4088 9.43165C92.6248 9.34804 92.791 9.2477 92.924 9.14736C93.0403 9.0303 93.14 8.94669 93.1733 8.8798C93.2231 8.81291 93.2563 8.74601 93.2563 8.67912H96.9956V8.69585ZM90.1652 4.94994H90.1486C88.4368 4.94994 87.4231 5.41818 87.1073 6.37138H93.2231C92.9572 5.41818 91.9434 4.94994 90.1652 4.94994Z" fill="white"/>
<path d="M98.7528 11.7227V3.29439H102.492V4.74927C103.689 3.64557 105.134 3.11044 106.846 3.11044H106.963C108.741 3.11044 109.954 3.66229 110.619 4.78272C111.832 3.66229 113.361 3.11044 115.222 3.11044H115.355C116.768 3.11044 117.815 3.42817 118.513 4.08036C119.227 4.73255 119.576 5.5018 119.576 6.40483V11.7227H115.754V7.5587C115.754 6.15398 115.056 5.45163 113.677 5.45163C112.879 5.45163 112.231 5.66902 111.765 6.10382C111.3 6.52188 111.067 7.07374 111.067 7.74265V11.7227H107.245V7.5587C107.245 6.15398 106.547 5.45163 105.151 5.45163C104.337 5.45163 103.705 5.66902 103.24 6.10382C102.775 6.52188 102.525 7.07374 102.525 7.74265V11.7227H98.7528Z" fill="white"/>
<path d="M4.71952 3.34456V23.7157H0.947021V3.34456H4.71952Z" fill="#131313"/>
<path d="M25.3741 21.4916H25.8394V23.8495H22.9311C22.1334 23.8495 21.6847 23.4481 21.5517 22.6622C21.2858 22.9799 20.8371 23.2976 20.189 23.5819C19.5408 23.8662 12.6855 24 11.5721 24H11.3726C10.0099 24 8.99612 23.7324 8.33137 23.1973C7.66661 22.6622 7.35085 21.9933 7.35085 21.1738V21.0568C7.35085 20.2708 7.61675 19.6688 8.18179 19.2507C8.74684 18.8494 9.6775 18.5818 10.9738 18.4648L20.9202 18.0969C21.2692 18.0467 21.452 17.8962 21.452 17.6453C21.452 17.4948 21.4188 17.3945 21.3523 17.2942C21.2858 17.2106 21.0698 17.1269 20.7208 17.06C20.3718 16.9764 19.8566 16.9263 19.2085 16.9263L7.35085 16.943V14.9363H19.5741C20.538 14.9363 21.3689 14.9864 22.0503 15.1035C22.7483 15.2205 23.2635 15.371 23.6291 15.5383C23.9947 15.7222 24.2772 15.9396 24.4767 16.2072C24.6927 16.4915 24.809 16.7256 24.8589 16.943C24.8921 17.1604 24.9254 17.4279 24.9254 17.729V21.0568C24.9254 21.3411 25.0749 21.4916 25.3741 21.4916ZM21.452 19.9865V19.719L12.054 20.2541C11.5721 20.321 11.2397 20.4213 11.0403 20.5384C10.8574 20.6554 10.7577 20.8227 10.7577 21.0568V21.0735C10.7577 21.3411 10.8741 21.5752 11.1233 21.7759C11.3726 21.9598 11.7715 22.0602 12.3365 22.0602C13.2506 22.0602 19.9895 21.8428 20.5712 21.4247C21.1695 21.0066 21.452 20.5384 21.452 19.9865Z" fill="#131313"/>
<path d="M28.2847 15.2373H32.024V16.6754C33.2039 15.5884 37.7746 15.0533 39.6193 15.0533H39.7522C41.2313 15.0533 42.3448 15.371 43.076 16.0065C43.8239 16.6587 44.1895 17.4279 44.1895 18.3477V23.6655H40.3671V19.5016C40.3671 18.8327 40.1677 18.3143 39.7688 17.9464C39.3534 17.5785 38.4409 17.3945 34.8658 17.3945C34.0183 17.3945 33.3369 17.6119 32.8217 18.03C32.3231 18.448 32.0572 18.9999 32.0572 19.6855V23.6655H28.2847V15.2373Z" fill="#131313"/>
<path d="M53.5844 23.816C52.5872 23.816 51.3938 23.7157 50.6127 23.5318C49.8316 23.3478 49.2167 23.1137 48.768 22.8294C48.3193 22.5451 47.937 22.2107 47.6379 21.8093C47.3554 21.408 47.156 21.0233 47.0562 20.6387C46.9565 20.2708 46.9067 19.8695 46.9067 19.4681V19.1504C46.9067 18.749 46.9565 18.3644 47.0562 17.9798C47.156 17.6119 47.3554 17.244 47.6379 16.8426C47.9204 16.458 48.3027 16.1403 48.7514 15.856C49.2167 15.5717 49.8316 15.3543 50.5961 15.1704C51.3772 15.0031 52.5872 14.9028 53.5844 14.9028H59.9933C61.0736 14.9028 62.0375 15.0031 62.8518 15.1871C63.6661 15.371 64.2976 15.6052 64.7297 15.8727C65.1618 16.1403 65.5108 16.458 65.7934 16.8092C66.0593 17.1771 66.2254 17.4948 66.3085 17.7624C66.375 18.0467 66.4083 18.3143 66.4083 18.5985V18.632H62.5194C62.2701 17.6286 61.755 17.1102 59.9933 17.1102H53.5844C52.5706 17.1102 51.9256 17.3109 51.4603 17.7122C50.9949 18.0969 50.7789 18.5985 50.7789 19.2006V19.3176C50.7789 19.9531 51.0115 20.4882 51.4603 20.923C51.9256 21.3578 52.5872 21.5752 53.5844 21.5752C53.5844 21.5752 58.2484 21.5752 59.9933 21.5752C61.7383 21.5752 62.2535 21.0568 62.5194 20.02H66.4083V20.0534C66.4083 20.3377 66.375 20.622 66.3085 20.9063C66.2421 21.1738 66.0759 21.5083 65.8266 21.8762C65.5607 22.2441 65.2117 22.5618 64.7796 22.8294C64.3475 23.097 63.716 23.3311 62.885 23.515C62.0541 23.7157 61.1068 23.816 59.9933 23.816H53.5844Z" fill="#131313"/>
<path d="M68.1152 23.7157V3.29439H71.8877V16.6921C73.051 15.6219 74.5467 15.0868 76.3914 15.0868H76.5078C77.9868 15.0868 79.1003 15.4045 79.8482 16.0567C80.596 16.6921 80.9616 17.4781 80.9616 18.3811V23.7157H77.1393V19.535C77.1393 18.8661 76.9398 18.3477 76.541 17.9798C76.1255 17.6286 75.5106 17.4447 74.6963 17.4447C73.8487 17.4447 73.1674 17.6453 72.6522 18.0634C72.1536 18.4815 71.8877 19.0333 71.8877 19.7357V23.7157H68.1152Z" fill="#131313"/>
<path d="M96.3337 20.6387C96.3337 20.9063 96.3005 21.1571 96.2174 21.408C96.1343 21.6755 95.9681 21.9431 95.7022 22.2441C95.4197 22.5618 95.0707 22.8127 94.6386 23.0468C94.2065 23.2642 93.6083 23.4649 92.8105 23.6154C92.0295 23.7659 91.1154 23.8328 90.0684 23.8328H89.1045C87.9246 23.8328 86.9108 23.7157 86.0466 23.4816C85.1825 23.2475 84.5177 22.913 84.0357 22.4949C83.5704 22.0769 83.2214 21.6254 82.9887 21.1404C82.7727 20.6554 82.673 20.1036 82.673 19.5183V19.1838C82.673 18.5985 82.7727 18.0801 82.9721 17.5952C83.1716 17.1102 83.5039 16.6754 83.9693 16.2574C84.418 15.8393 85.0827 15.5216 85.9303 15.2874C86.7945 15.0533 87.8083 14.9363 89.0048 14.9363H90.0352C94.273 14.9363 96.3836 16.4413 96.3836 19.4848V20.0534H86.379C86.6283 21.1571 87.7085 21.709 89.6197 21.709H89.6363C90.1016 21.709 90.5338 21.6755 90.8994 21.6086C91.265 21.5417 91.5475 21.4749 91.7469 21.3745C91.963 21.2909 92.1292 21.1906 92.2621 21.0902C92.3784 20.9732 92.4782 20.8896 92.5114 20.8227C92.5613 20.7558 92.5945 20.6889 92.5945 20.622H96.3337V20.6387ZM89.5034 16.8928H89.4867C87.775 16.8928 86.7612 17.3611 86.4455 18.3143H92.5613C92.2953 17.3611 91.2816 16.8928 89.5034 16.8928Z" fill="#131313"/>
<path d="M102.81 20.4213V19.4347C102.81 18.933 102.96 18.5484 103.259 18.2808C103.558 17.9965 104.173 17.7624 105.103 17.545L106.3 17.2607C106.848 17.1437 107.197 17.0099 107.38 16.8761C107.546 16.7423 107.629 16.5918 107.629 16.4246C107.629 16.2908 107.596 16.1737 107.53 16.0901C107.463 16.0065 107.247 15.9229 106.865 15.856C106.499 15.7724 105.818 15.7389 103.426 15.7389C102.944 15.7389 102.645 15.7724 102.296 15.8393C101.947 15.9062 101.681 15.9731 101.514 16.0567C101.348 16.1236 101.215 16.2406 101.132 16.3911C101.032 16.5249 100.983 16.6253 100.966 16.6921C100.966 16.7423 100.949 16.8426 100.933 16.9764H97.6755V16.8092C97.6755 16.5918 97.6755 16.4079 97.6921 16.2574C97.7087 16.0901 97.7419 15.9062 97.825 15.6721C97.9081 15.4212 98.0078 15.2205 98.1408 15.0533C98.2904 14.8861 98.4898 14.7189 98.7557 14.5349C99.0382 14.351 99.354 14.2004 99.7362 14.0667C100.102 13.9496 100.584 13.866 101.182 13.7824C101.764 13.7155 102.428 13.6653 103.16 13.6653H105.635C106.499 13.6653 107.264 13.7322 107.912 13.8325C108.577 13.9496 109.075 14.0834 109.458 14.2506C109.84 14.4346 110.139 14.6352 110.372 14.8861C110.604 15.1369 110.754 15.3878 110.82 15.6219C110.903 15.856 110.937 16.1236 110.937 16.4079V16.4915C110.937 17.1437 110.721 17.6955 110.289 18.1303C109.873 18.5651 109.158 18.8996 108.195 19.1169L107.015 19.418C106.582 19.5016 106.333 19.6186 106.217 19.7357C106.117 19.8695 106.067 20.0701 106.067 20.3377V20.4213H102.81ZM106.2 21.2909V23.5987H102.76V21.2909H106.2Z" fill="white"/>
</svg>
