<svg width="8" height="8" viewBox="0 0 8 8" fill="none" xmlns="http://www.w3.org/2000/svg">
<path d="M7.61707 1.29922C7.61699 0.931164 7.31806 0.632234 6.95 0.632154L2.23882 0.631124C1.87076 0.631044 1.57196 0.929843 1.57204 1.2979C1.57212 1.66596 1.87105 1.9649 2.23911 1.96498L5.34407 1.96418L0.828221 6.48003C0.567691 6.74056 0.567783 7.16162 0.828427 7.42227C1.08907 7.68291 1.51013 7.683 1.77066 7.42247L6.28504 2.90809L6.28719 6.01011C6.28727 6.37817 6.5862 6.6771 6.95426 6.67718C7.32233 6.67726 7.62112 6.37846 7.62104 6.0104L7.62001 1.29923L7.61707 1.29922Z" fill="black" stroke="white" stroke-width="0.5"/>
</svg>
