<svg width="26" height="26" viewBox="0 0 26 26" fill="none" xmlns="http://www.w3.org/2000/svg">
<path d="M24.9937 12.9766C24.9937 13.8203 24.3687 14.4813 23.6603 14.4813H22.3268L22.356 21.9906C22.356 22.1172 22.3476 22.2437 22.3351 22.3703V23.125C22.3351 24.1609 21.5893 25 20.6683 25H20.0016C19.9558 25 19.9099 25 19.8641 24.9953C19.8058 25 19.7474 25 19.6891 25H18.3348H17.3347C16.4138 25 15.6679 24.1609 15.6679 23.125V22V19C15.6679 18.1703 15.072 17.5 14.3345 17.5H11.6676C10.93 17.5 10.3341 18.1703 10.3341 19V22V23.125C10.3341 24.1609 9.58823 25 8.66732 25H7.66723H6.33795C6.27545 25 6.21294 24.9953 6.15044 24.9906C6.10043 24.9953 6.05043 25 6.00043 25H5.3337C4.41279 25 3.66689 24.1609 3.66689 23.125V17.875C3.66689 17.8328 3.66689 17.7859 3.67106 17.7438V14.4813H2.33345C1.58338 14.4813 1 13.825 1 12.9766C1 12.5547 1.12501 12.1797 1.4167 11.8516L12.1009 1.375C12.3926 1.04688 12.726 1 13.0177 1C13.3094 1 13.6427 1.09375 13.8928 1.32812L24.5353 11.8516C24.8687 12.1797 25.0354 12.5547 24.9937 12.9766Z" stroke="white"/>
</svg>
